# xmcd
#
# Track frame offsets:
#	150
#	10115
#	21960
#	33915
#	47575
#	58352
#	69832
#	81995
#	92420
#	106922
#	119887
#	130327
#	142705
#	153502
#	164052
#	176445
#	188117
#	201515
#	212737
#	229397
#
# Disc length: 3225
#
# Revision: 2
# Processed by: cddbd v1.5.1PL0 Copyright (c) Steve Scherf et al.
# Submitted via: dBpowerAMP V4.0
# Normalized: r0:TSWAP
#
DISCID=1b0c9714
DTITLE=Various Artist - History Of Country Music Country Hits From The 60's
DYEAR=1900
DGENRE=Country
TTITLE0=Buck Owens - I've Got A Tiger By The Tail
TTITLE1=Hank Snow - Ninety Miles An Hour (Down A Dead End Street)
TTITLE2=Del Reeves - Girl On The Billboard
TTITLE3=Glen Cambell - Wichita Lineman
TTITLE4=Porter Wagoner - Green, Green Grass Of Home
TTITLE5=Wynn Stewart - It's Such A Pretty World Today
TTITLE6=Burl Ives - Funny Way Of Laughing
TTITLE7=Jody Miller - Queen Of The House
TTITLE8=Charlie Pride - Kaw-Liga
TTITLE9=Jim Reeves - Distant Drums
TTITLE10=Connie Smith - Ain't Had No Lovin'
TTITLE11=Bill Anderson and Jan Howard - For Loving You
TTITLE12=Hank Locklin - Please Help Me, I'm Falling
TTITLE13=Jim Ed Brown - Pop A Top
TTITLE14=Dottie West and Don Gibson - Rings Of Gold
TTITLE15=George Jones - She Still Thinks I Still Care
TTITLE16=Tammy Wynette - D-I-V-O-R-C-E
TTITLE17=Willie Nelson - The Party's Over
TTITLE18=Jimmie Dean and Dottie West - For The Good Times
TTITLE19=Eddy Arnold - Then You Can Tell Me Goodbye
EXTD=
EXTT0=
EXTT1=
EXTT2=
EXTT3=
EXTT4=
EXTT5=
EXTT6=
EXTT7=
EXTT8=
EXTT9=
EXTT10=
EXTT11=
EXTT12=
EXTT13=
EXTT14=
EXTT15=
EXTT16=
EXTT17=
EXTT18=
EXTT19=
PLAYORDER=
